<?xml version="1.0" standalone="no"?>
<!DOCTYPE svg PUBLIC "-//W3C//DTD SVG 20010904//EN"
 "http://www.w3.org/TR/2001/REC-SVG-20010904/DTD/svg10.dtd">
<svg version="1.0" xmlns="http://www.w3.org/2000/svg"
 width="1080.000000pt" height="1080.000000pt" viewBox="0 0 1080.000000 1080.000000"
 preserveAspectRatio="xMidYMid meet">

<g transform="translate(0.000000,1080.000000) scale(0.100000,-0.100000)"
fill="#000000" stroke="none">
<path d="M2050 10503 c-51 -10 -150 -62 -195 -104 -51 -47 -125 -149 -125
-171 0 -8 -4 -18 -8 -23 -5 -6 -14 -37 -21 -70 -7 -33 -15 -65 -17 -72 -2 -9
-118 -13 -466 -15 l-463 -3 -70 -34 c-90 -45 -172 -127 -217 -218 l-33 -68 0
-1920 0 -1920 37 -75 c63 -129 167 -212 306 -246 46 -11 266 -13 1163 -14
1090 0 1107 0 1132 20 36 28 48 69 32 107 -7 17 -19 35 -27 39 -7 5 -521 11
-1143 14 -1055 5 -1133 6 -1168 23 -58 27 -112 82 -136 137 l-21 49 2 1548 3
1548 2760 0 2760 0 5 -255 c3 -140 9 -263 14 -273 10 -22 57 -47 86 -47 12 0
35 13 51 29 l29 29 0 574 c0 625 -1 642 -57 738 -42 70 -121 142 -198 180 -69
33 -72 34 -239 39 l-169 6 -17 71 c-24 105 -65 180 -134 250 -177 177 -441
179 -616 4 -72 -71 -140 -208 -140 -281 0 -18 -7 -32 -19 -39 -13 -7 -367 -10
-1075 -10 l-1056 0 -5 28 c-31 144 -70 225 -146 301 -61 61 -134 103 -209 120
-45 11 -143 12 -190 4z m172 -185 c22 -6 62 -31 88 -55 68 -61 122 -183 89
-204 -8 -5 -125 -9 -260 -9 -273 0 -274 0 -260 60 36 160 192 254 343 208z
m3086 -14 c55 -27 101 -75 128 -133 25 -52 33 -98 21 -110 -13 -13 -495 -15
-516 -2 -27 17 11 125 66 186 75 85 201 109 301 59z m-3620 -571 l-3 -138
-157 -5 c-140 -4 -160 -7 -177 -25 -38 -38 -32 -109 12 -135 30 -19 51 -20
418 -20 l387 0 31 29 c41 39 42 82 2 122 l-29 29 -145 0 c-111 0 -147 3 -156
14 -8 9 -11 55 -9 137 l3 124 1438 3 1437 2 0 -140 0 -140 -151 0 -151 0 -29
-29 c-39 -40 -39 -82 0 -122 l29 -29 387 0 c425 0 430 1 455 60 11 27 11 37
-3 66 -9 19 -28 39 -43 44 -14 6 -83 10 -154 10 -71 0 -135 3 -144 6 -14 5
-16 27 -16 140 l0 134 510 0 c503 0 511 0 557 -22 58 -27 104 -73 131 -131 21
-44 22 -61 22 -272 l0 -225 -2765 0 -2765 0 0 225 c0 211 1 228 22 272 27 57
72 103 129 131 43 20 56 21 487 22 l443 0 -3 -137z"/>
<path d="M8125 9624 c-188 -10 -488 -78 -640 -144 -203 -88 -341 -167 -490
-279 -118 -89 -318 -288 -374 -372 -35 -53 -39 -63 -30 -92 18 -64 90 -87 140
-44 14 12 42 43 63 69 54 69 180 194 266 264 331 270 765 424 1195 424 355 0
724 -108 1017 -297 219 -141 408 -328 557 -551 50 -75 141 -247 182 -347 25
-61 64 -194 85 -295 35 -160 44 -455 20 -618 -34 -229 -95 -419 -197 -611
-102 -190 -179 -292 -348 -461 -155 -154 -272 -238 -466 -334 -199 -100 -335
-143 -580 -188 -93 -16 -458 -16 -550 0 -115 21 -179 34 -205 42 -14 4 -78 25
-142 45 -107 34 -121 36 -149 25 -42 -18 -63 -66 -48 -110 12 -34 45 -54 145
-88 602 -206 1279 -122 1808 224 131 86 189 134 314 257 287 282 479 621 561
987 5 25 12 56 16 70 32 142 45 458 25 617 -24 188 -68 364 -130 518 -186 467
-550 858 -1000 1077 -69 34 -134 64 -145 69 -154 60 -285 94 -490 128 -67 11
-317 20 -410 15z"/>
<path d="M5160 8483 c-8 -3 -23 -15 -32 -27 -15 -18 -18 -48 -18 -244 l0 -224
29 -29 c46 -46 108 -34 140 28 17 34 15 405 -3 448 -20 48 -65 66 -116 48z"/>
<path d="M9312 8365 c-39 -18 -108 -77 -260 -222 -275 -264 -251 -240 -408
-393 -307 -299 -596 -575 -604 -578 -4 -2 -162 154 -350 346 -230 235 -361
361 -399 383 -51 32 -61 34 -141 34 -72 0 -94 -4 -134 -25 -100 -51 -156 -133
-164 -240 -5 -77 8 -132 45 -187 16 -23 236 -252 491 -511 394 -400 471 -473
515 -493 98 -42 212 -35 294 19 37 24 251 228 673 637 154 150 400 388 614
595 179 172 184 177 214 229 24 41 27 56 27 136 0 69 -4 98 -19 125 -37 68
-77 109 -138 139 -82 41 -176 43 -256 6z"/>
<path d="M5835 8345 c-23 -11 -43 -39 -75 -102 -25 -48 -69 -132 -97 -187 -69
-131 -70 -180 -5 -215 30 -16 74 -6 99 22 11 12 44 69 73 127 30 58 71 139 92
180 44 86 47 119 16 154 -30 33 -65 40 -103 21z"/>
<path d="M4444 8290 c-29 -11 -54 -48 -54 -78 0 -26 214 -351 256 -389 33 -30
75 -29 113 3 58 49 48 75 -128 324 -17 25 -43 61 -56 82 -41 62 -79 79 -131
58z"/>
<path d="M1670 8191 c-88 -28 -140 -60 -207 -123 -212 -204 -196 -503 44 -823
110 -146 185 -220 600 -594 104 -93 104 -93 126 -75 93 80 448 405 515 472
287 289 405 557 347 790 -42 175 -190 321 -365 361 -159 37 -338 -11 -469
-126 l-52 -46 -42 41 c-128 123 -337 175 -497 123z m298 -201 c46 -24 88 -60
154 -132 l91 -98 99 104 c129 137 175 161 303 161 105 0 155 -19 223 -86 136
-135 120 -335 -45 -562 -80 -109 -172 -206 -351 -368 -92 -84 -181 -165 -198
-182 l-32 -29 -198 183 c-110 100 -232 218 -272 263 -254 283 -312 505 -176
673 65 80 149 115 264 110 63 -3 86 -9 138 -37z"/>
<path d="M3908 7528 c-19 -15 -33 -43 -44 -83 -8 -33 -24 -91 -34 -130 -10
-38 -29 -110 -43 -160 -13 -49 -37 -135 -51 -190 -15 -55 -34 -125 -43 -155
-8 -30 -19 -71 -23 -90 -4 -19 -15 -60 -23 -90 -9 -30 -28 -100 -43 -155 -14
-55 -38 -140 -51 -190 -14 -49 -33 -123 -44 -162 -10 -40 -28 -107 -39 -148
-11 -41 -29 -108 -39 -147 -43 -161 -63 -235 -77 -283 -59 -200 -58 -368 1
-540 42 -120 123 -244 215 -328 27 -25 50 -50 50 -55 0 -5 -21 -76 -46 -158
-55 -180 -77 -251 -99 -324 -9 -30 -20 -66 -24 -80 -5 -14 -24 -73 -41 -131
l-33 -106 -86 -7 c-47 -3 -309 -8 -581 -12 -543 -6 -602 -11 -745 -66 -151
-58 -293 -162 -378 -276 -88 -119 -133 -218 -187 -412 -7 -25 -17 -61 -23 -80
-5 -19 -11 -41 -13 -47 -3 -10 -72 -13 -304 -13 -249 0 -306 -3 -330 -15 -67
-34 -68 -119 -3 -153 34 -18 683 -17 726 2 46 19 58 42 105 211 46 163 80 253
125 330 85 145 215 247 387 303 72 23 90 25 475 33 828 18 1528 29 1772 29
244 0 254 -1 306 -24 142 -62 204 -212 143 -341 -30 -64 -76 -108 -149 -139
-65 -29 -119 -32 -301 -17 -61 6 -181 15 -266 21 -85 5 -256 17 -380 26 -124
9 -245 13 -270 10 -76 -10 -163 -60 -227 -130 l-59 -64 -174 -11 c-278 -18
-311 -21 -332 -32 -25 -14 -44 -59 -53 -129 -22 -173 -112 -386 -213 -506
-113 -134 -232 -216 -387 -264 -88 -27 -130 -67 -121 -113 9 -46 43 -77 83
-77 36 0 161 36 177 51 6 5 16 9 23 9 7 0 52 23 100 52 238 139 425 413 493
718 23 103 15 97 137 105 59 3 131 7 158 8 l50 2 5 -85 c5 -84 25 -147 56
-181 14 -16 11 -21 -39 -57 -134 -99 -191 -213 -190 -377 1 -98 22 -171 69
-241 l25 -37 -64 -62 c-137 -133 -171 -304 -91 -462 31 -62 30 -69 -8 -89 -51
-26 -117 -84 -147 -128 -44 -65 -63 -125 -70 -216 l-6 -85 -130 -3 c-335 -7
-633 109 -879 342 -59 55 -90 77 -122 85 -69 18 -686 15 -729 -3 -59 -25 -75
-97 -30 -141 l24 -25 330 0 c209 0 340 -4 358 -11 15 -5 55 -36 88 -68 135
-128 300 -226 480 -284 154 -49 256 -64 500 -73 l190 -7 52 -49 c90 -84 149
-100 418 -118 88 -6 212 -15 275 -20 63 -5 176 -14 250 -20 74 -7 165 -16 202
-21 99 -13 266 -11 319 5 147 45 241 138 288 285 18 57 14 184 -9 243 -24 64
-25 88 -4 88 39 0 143 62 193 115 76 81 105 149 109 261 3 80 1 99 -23 158
-15 37 -25 69 -23 70 1 1 25 10 51 20 86 32 174 117 214 206 33 75 38 100 38
205 -1 103 -3 114 -33 176 -39 80 -39 87 -7 99 38 14 114 88 152 148 20 30 42
86 55 135 18 74 19 89 8 157 -15 95 -57 182 -114 241 -45 45 -138 99 -173 99
-10 0 -25 5 -33 10 -13 8 -13 13 3 37 127 194 110 407 -43 563 -64 65 -156
115 -245 131 -39 7 -152 10 -322 7 -186 -4 -263 -2 -266 6 -5 16 12 81 154
558 l20 67 47 6 c236 30 452 161 578 350 68 101 100 183 155 392 53 202 67
256 83 313 8 30 29 109 47 175 17 66 41 152 51 190 11 39 28 103 39 143 21 78
42 161 84 317 14 55 38 141 52 190 13 50 36 133 50 185 40 153 60 231 77 293
21 78 20 101 -6 131 -23 25 -53 35 -268 91 -58 15 -136 36 -175 46 -114 32
-137 37 -200 53 -33 8 -85 21 -115 30 -83 22 -229 61 -385 101 -77 20 -174 46
-215 57 -117 32 -141 32 -172 6z m274 -217 c62 -16 147 -38 188 -49 41 -11
120 -32 175 -47 55 -15 125 -33 155 -41 30 -9 105 -28 165 -44 314 -81 378
-99 386 -107 8 -8 6 -19 -30 -155 -12 -43 -30 -111 -40 -150 -28 -107 -50
-185 -68 -252 l-16 -58 -41 6 c-164 26 -294 25 -401 -4 -22 -6 -56 -15 -75
-20 -19 -5 -154 -39 -300 -76 -234 -59 -276 -67 -360 -67 -100 -1 -180 16
-180 36 0 7 9 46 21 87 30 110 48 176 70 258 30 112 55 208 84 317 14 55 41
154 59 220 19 66 36 132 40 148 8 35 24 35 168 -2z m780 -1063 c43 -7 72 -17
75 -26 6 -13 -5 -62 -40 -192 -9 -30 -28 -100 -43 -155 -14 -55 -38 -140 -51
-190 -14 -49 -33 -123 -44 -162 -84 -317 -87 -329 -114 -418 -56 -178 -154
-302 -312 -392 -121 -68 -323 -94 -460 -58 -81 21 -188 74 -250 124 -91 73
-182 211 -214 326 -18 65 -18 264 0 330 69 251 86 312 108 395 13 52 33 128
43 169 11 41 23 78 28 83 6 6 31 6 66 -2 63 -13 221 -16 287 -5 24 4 112 24
194 45 83 21 164 41 180 44 17 4 46 11 65 16 19 5 53 13 75 19 22 5 76 18 120
30 137 34 180 37 287 19z m-1019 -1768 c26 -7 47 -18 47 -26 0 -7 -18 -75 -41
-151 -22 -76 -45 -154 -51 -173 -12 -47 -30 -108 -64 -225 -9 -33 -22 -66 -27
-72 -14 -19 -237 -18 -237 0 0 8 9 40 19 73 17 51 65 208 92 299 5 17 17 57
28 90 11 33 31 99 45 147 l26 87 58 -19 c31 -10 78 -24 105 -30z m-108 -1495
c364 -26 489 -35 640 -45 281 -19 410 -33 435 -45 32 -17 63 -50 89 -98 30
-53 29 -169 0 -232 -26 -56 -90 -112 -137 -121 -35 -7 -175 -1 -412 16 -74 6
-199 15 -277 20 -79 6 -205 15 -280 20 -76 5 -210 14 -298 20 -200 13 -241 22
-283 63 -45 44 -62 81 -69 153 -10 113 38 208 132 259 33 18 81 17 460 -10z
m-351 -635 c61 -5 185 -14 276 -20 91 -6 219 -15 285 -20 66 -5 194 -14 285
-20 263 -17 368 -29 400 -45 39 -20 89 -81 106 -130 21 -61 18 -157 -7 -210
-24 -51 -96 -121 -135 -131 -27 -7 -149 -2 -364 15 -418 33 -794 63 -920 71
-165 12 -192 16 -237 36 -35 16 -81 78 -101 135 -38 111 18 258 120 314 28 16
146 18 292 5z m-54 -670 c74 -5 286 -21 470 -35 430 -32 519 -41 562 -59 49
-21 102 -84 123 -146 15 -46 16 -59 5 -107 -15 -62 -72 -134 -123 -157 -63
-28 -86 -28 -479 4 -71 5 -183 14 -250 20 -628 49 -600 45 -645 68 -87 45
-142 147 -127 236 8 54 25 84 66 122 77 73 104 77 398 54z m-115 -625 c186
-15 312 -24 585 -45 193 -14 251 -21 285 -36 61 -28 107 -85 126 -157 21 -86
-22 -188 -104 -244 -41 -27 -45 -28 -172 -26 -71 0 -188 6 -260 12 -150 13
-318 26 -525 41 -264 19 -321 28 -370 58 -26 16 -57 47 -73 74 -71 114 -14
279 109 323 51 18 166 18 399 0z"/>
<path d="M6485 7540 c-16 -5 -55 -13 -85 -19 -83 -17 -434 -85 -620 -121 -91
-18 -174 -37 -185 -43 -69 -36 -56 -144 19 -163 19 -4 262 39 526 95 25 5 74
15 110 21 36 6 83 15 105 20 22 5 59 12 82 15 42 7 42 6 52 -32 5 -21 15 -65
21 -98 6 -33 15 -78 20 -100 5 -22 14 -67 20 -100 6 -33 15 -78 20 -100 9 -42
20 -98 46 -230 8 -44 33 -168 55 -275 21 -107 44 -220 50 -250 6 -30 14 -73
19 -95 5 -22 14 -67 20 -100 6 -33 16 -78 20 -100 21 -94 20 -96 -16 -111 -21
-9 -71 -14 -138 -14 -98 0 -123 5 -422 82 -311 81 -322 83 -454 86 -201 5
-407 -37 -445 -91 -23 -32 -19 -62 30 -265 25 -103 59 -243 76 -312 45 -188
58 -228 99 -315 107 -223 326 -387 587 -439 l57 -11 12 -50 c6 -27 17 -81 23
-120 7 -38 16 -90 21 -115 5 -25 21 -110 36 -190 14 -80 34 -184 43 -233 10
-48 15 -89 13 -92 -3 -3 -66 -5 -141 -5 -243 0 -392 -41 -526 -144 -90 -69
-176 -181 -212 -276 -43 -112 -48 -135 -48 -255 0 -99 5 -132 23 -189 38 -114
84 -193 156 -269 41 -42 43 -47 20 -47 -30 0 -134 -63 -170 -103 -46 -50 -82
-128 -96 -207 -36 -205 115 -440 305 -475 21 -4 40 -12 43 -17 3 -5 -2 -31
-12 -56 -30 -74 -25 -210 9 -285 53 -116 170 -206 307 -237 30 -6 60 -13 67
-15 8 -3 8 -16 -3 -51 -8 -26 -14 -87 -14 -136 0 -77 4 -97 30 -156 34 -75
112 -162 174 -194 94 -49 106 -50 531 -49 779 1 1457 23 1600 52 341 68 613
214 853 457 l83 84 342 -1 c188 -1 385 -4 438 -7 117 -8 161 7 179 61 13 41
-7 91 -43 104 -12 5 -224 13 -472 18 -535 12 -511 16 -606 -84 -246 -260 -482
-392 -819 -458 -75 -15 -178 -18 -1464 -44 -487 -10 -498 -9 -570 51 -43 36
-86 121 -86 171 1 54 41 119 95 152 l48 30 588 3 587 2 26 27 c35 34 35 85 1
118 l-24 25 -398 1 c-742 2 -1145 12 -1173 29 -121 72 -167 203 -104 296 31
45 47 59 93 79 28 13 137 15 735 15 649 0 703 2 722 18 49 39 54 101 12 138
-19 18 -61 19 -887 24 l-866 5 -39 27 c-48 33 -92 96 -107 152 -25 92 15 202
89 244 l40 22 786 0 c854 0 828 -2 854 55 18 38 15 61 -12 92 l-24 28 -639 5
-638 6 -60 23 c-171 68 -289 200 -325 362 -16 70 -9 197 14 262 35 98 121 204
211 259 89 55 152 69 343 75 118 4 185 2 198 -5 15 -8 23 -29 33 -89 7 -43 17
-94 22 -113 4 -19 9 -57 11 -85 l3 -50 -107 -5 c-127 -6 -161 -23 -166 -84 -3
-29 2 -42 26 -65 37 -38 100 -45 377 -44 247 0 285 4 900 93 148 22 283 50
370 78 44 13 126 57 152 79 47 41 49 97 5 137 -27 24 -82 18 -177 -17 -93 -35
-203 -63 -385 -97 -41 -8 -206 -31 -323 -44 -55 -7 -57 -4 -77 99 -6 33 -15
78 -20 100 -7 35 -21 104 -36 183 -6 29 27 59 108 100 95 47 151 62 288 80
190 24 430 1 730 -70 207 -49 403 -136 601 -268 80 -53 206 -148 245 -185 6
-5 43 -38 82 -73 80 -71 168 -177 250 -299 83 -124 52 -117 532 -121 438 -3
438 -3 466 51 12 22 13 35 4 62 -20 59 -45 65 -322 66 -133 1 -303 4 -377 8
l-135 6 -65 95 c-69 100 -241 281 -351 369 -36 29 -74 60 -84 68 -71 58 -280
189 -381 240 -182 91 -318 136 -540 181 -205 42 -314 53 -498 54 -230 0 -365
-26 -515 -100 -42 -21 -76 -32 -81 -26 -6 7 -39 161 -101 479 -21 105 -33 164
-41 205 -5 25 -12 68 -16 96 -5 51 -5 53 37 90 138 124 217 248 266 414 32
110 26 297 -15 495 -18 88 -35 171 -38 185 -2 14 -8 43 -13 65 -4 22 -14 67
-20 100 -6 33 -15 78 -20 100 -9 43 -9 41 -75 375 -46 235 -61 308 -75 375 -5
22 -14 67 -20 100 -6 33 -15 78 -20 100 -5 22 -13 65 -19 95 -48 243 -74 370
-82 402 -17 66 -72 90 -154 68z m-489 -1851 c192 -49 223 -57 309 -78 22 -5
58 -15 80 -21 98 -27 237 -38 340 -25 55 7 103 9 107 6 4 -4 17 -54 29 -111
53 -262 -10 -476 -190 -642 -192 -176 -480 -216 -714 -98 -167 84 -293 240
-336 415 -7 28 -16 66 -21 85 -37 139 -110 453 -110 469 0 14 9 23 28 27 15 3
41 10 57 14 17 5 73 9 126 9 84 1 120 -5 295 -50z m573 -1226 c26 -122 36
-168 96 -473 66 -334 66 -332 75 -375 5 -22 14 -67 20 -100 6 -33 16 -78 20
-100 5 -22 11 -51 13 -65 3 -14 12 -61 21 -104 9 -44 13 -82 11 -85 -7 -7
-217 -20 -231 -14 -6 2 -14 23 -18 46 -7 46 -18 110 -35 200 -11 56 -22 118
-40 220 -6 28 -22 113 -36 187 -14 74 -30 159 -36 188 -18 103 -30 168 -39
217 -11 57 -26 139 -38 207 -5 26 -6 52 -2 57 3 6 28 15 56 20 27 6 69 16 94
24 25 8 48 13 51 11 3 -2 11 -29 18 -61z"/>
</g>
</svg>
